solid OpenSCAD_Model
  facet normal -1 0 0
    outer loop
      vertex 30 50 10.1
      vertex 30 37.5 43.5
      vertex 30 50 96.753
    endloop
  endfacet
  facet normal -1 0 0
    outer loop
      vertex 30 50 10.1
      vertex 30 37.4315 42.1934
      vertex 30 37.5 43.5
    endloop
  endfacet
  facet normal -1 0 0
    outer loop
      vertex 30 50 10.1
      vertex 30 36.8882 39.6373
      vertex 30 37.4315 42.1934
    endloop
  endfacet
  facet normal -1 0 0
    outer loop
      vertex 30 50 10.1
      vertex 30 35.8253 37.25
      vertex 30 36.8882 39.6373
    endloop
  endfacet
  facet normal -1 0 0
    outer loop
      vertex 30 50 10.1
      vertex 30 34.2893 35.1359
      vertex 30 35.8253 37.25
    endloop
  endfacet
  facet normal -1 0 0
    outer loop
      vertex 30 50 10.1
      vertex 30 32.3473 33.3873
      vertex 30 34.2893 35.1359
    endloop
  endfacet
  facet normal -1 0 0
    outer loop
      vertex 30 50 10.1
      vertex 30 30.0842 32.0807
      vertex 30 32.3473 33.3873
    endloop
  endfacet
  facet normal -1 0 0
    outer loop
      vertex 30 50 10.1
      vertex 30 27.5989 31.2732
      vertex 30 30.0842 32.0807
    endloop
  endfacet
  facet normal -1 0 0
    outer loop
      vertex 30 50 10.1
      vertex 30 25 31
      vertex 30 27.5989 31.2732
    endloop
  endfacet
  facet normal -1 0 0
    outer loop
      vertex 30 0 10.1
      vertex 30 25 31
      vertex 30 50 10.1
    endloop
  endfacet
  facet normal -1 -0 0
    outer loop
      vertex 30 25 31
      vertex 30 0 10.1
      vertex 30 22.4011 31.2732
    endloop
  endfacet
  facet normal -1 -0 0
    outer loop
      vertex 30 22.4011 31.2732
      vertex 30 0 10.1
      vertex 30 19.9158 32.0807
    endloop
  endfacet
  facet normal -1 0 0
    outer loop
      vertex 30 12.5685 42.1934
      vertex 30 12.5 43.5
      vertex 30 12.5685 43.5
    endloop
  endfacet
  facet normal -1 -0 0
    outer loop
      vertex 30 19.9158 32.0807
      vertex 30 0 10.1
      vertex 30 17.6527 33.3873
    endloop
  endfacet
  facet normal -1 0 0
    outer loop
      vertex 30 0 10.1
      vertex 30 15.7107 35.1359
      vertex 30 17.6527 33.3873
    endloop
  endfacet
  facet normal -1 0 0
    outer loop
      vertex 30 0 10.1
      vertex 30 14.1747 37.25
      vertex 30 15.7107 35.1359
    endloop
  endfacet
  facet normal -1 0 0
    outer loop
      vertex 30 0 10.1
      vertex 30 13.1118 39.6373
      vertex 30 14.1747 37.25
    endloop
  endfacet
  facet normal -1 0 0
    outer loop
      vertex 30 0 10.1
      vertex 30 12.5685 42.1934
      vertex 30 13.1118 39.6373
    endloop
  endfacet
  facet normal -1 0 0
    outer loop
      vertex 30 0 10.1
      vertex 30 12.5 43.5
      vertex 30 12.5685 42.1934
    endloop
  endfacet
  facet normal -1 0 0
    outer loop
      vertex 30 0 96.753
      vertex 30 12.5 43.5
      vertex 30 0 10.1
    endloop
  endfacet
  facet normal -1 0 0
    outer loop
      vertex 30 12.5 43.5
      vertex 30 0 96.753
      vertex 30 12.5 96.753
    endloop
  endfacet
  facet normal -1 -0 0
    outer loop
      vertex 30 50 96.753
      vertex 30 37.5 43.5
      vertex 30 37.5 96.753
    endloop
  endfacet
  facet normal -1 -0 0
    outer loop
      vertex 30 37.5 43.5
      vertex 30 37.4315 42.1934
      vertex 30 37.4315 43.5
    endloop
  endfacet
  facet normal -0 0 1
    outer loop
      vertex 39.9288 12.5 103
      vertex 40 0 103
      vertex 40 12.5 103
    endloop
  endfacet
  facet normal 0 0 1
    outer loop
      vertex 40 0 103
      vertex 39.9288 12.5 103
      vertex 39.9288 0 103
    endloop
  endfacet
  facet normal -0 0 1
    outer loop
      vertex 39.9288 50 103
      vertex 40 37.5 103
      vertex 40 50 103
    endloop
  endfacet
  facet normal 0 0 1
    outer loop
      vertex 40 37.5 103
      vertex 39.9288 50 103
      vertex 39.9288 37.5 103
    endloop
  endfacet
  facet normal 0 1 0
    outer loop
      vertex 40.137 50 35
      vertex 40.137 50 32.3868
      vertex 40 50 35
    endloop
  endfacet
  facet normal 0 1 0
    outer loop
      vertex 30 50 96.753
      vertex 39.9288 50 103
      vertex 40 50 103
    endloop
  endfacet
  facet normal 0 1 0
    outer loop
      vertex 39.9288 50 103
      vertex 30 50 96.753
      vertex 26.0713 50 102.004
    endloop
  endfacet
  facet normal 0 1 0
    outer loop
      vertex 26.0713 50 102.004
      vertex 30 50 96.753
      vertex 26.6326 50 100.092
    endloop
  endfacet
  facet normal 0 1 0
    outer loop
      vertex 26.6326 50 100.092
      vertex 30 50 96.753
      vertex 27.7098 50 98.416
    endloop
  endfacet
  facet normal 0 1 0
    outer loop
      vertex 27.7098 50 98.416
      vertex 30 50 96.753
      vertex 29.2155 50 97.1112
    endloop
  endfacet
  facet normal 0 1 -0
    outer loop
      vertex 40 50 35
      vertex 30 50 96.753
      vertex 40 50 103
    endloop
  endfacet
  facet normal 0 1 0
    outer loop
      vertex 30 50 10.1
      vertex 40 50 35
      vertex 40.137 50 32.3868
    endloop
  endfacet
  facet normal 0 1 0
    outer loop
      vertex 40 50 35
      vertex 30 50 10.1
      vertex 30 50 96.753
    endloop
  endfacet
  facet normal 0 1 0
    outer loop
      vertex 41.2236 50 27.2746
      vertex 30 50 10.1
      vertex 40.137 50 32.3868
    endloop
  endfacet
  facet normal 0 1 0
    outer loop
      vertex 43.3494 50 22.5
      vertex 30 50 10.1
      vertex 41.2236 50 27.2746
    endloop
  endfacet
  facet normal 0 1 0
    outer loop
      vertex 46.4214 50 18.2717
      vertex 30 50 10.1
      vertex 43.3494 50 22.5
    endloop
  endfacet
  facet normal 0 1 0
    outer loop
      vertex 50.3054 50 14.7746
      vertex 30 50 10.1
      vertex 46.4214 50 18.2717
    endloop
  endfacet
  facet normal 0 1 0
    outer loop
      vertex 54.8316 50 12.1614
      vertex 30 50 10.1
      vertex 50.3054 50 14.7746
    endloop
  endfacet
  facet normal 0 1 0
    outer loop
      vertex 59.8022 50 10.5463
      vertex 30 50 10.1
      vertex 54.8316 50 12.1614
    endloop
  endfacet
  facet normal 0 1 0
    outer loop
      vertex 30 50 10.1
      vertex 59.8022 50 10.5463
      vertex 64.0486 50 10.1
    endloop
  endfacet
  facet normal 0 1 0
    outer loop
      vertex 34.9721 50 109.716
      vertex 31.0279 50 109.716
      vertex 33 50 110
    endloop
  endfacet
  facet normal 0 1 0
    outer loop
      vertex 36.7845 50 108.889
      vertex 31.0279 50 109.716
      vertex 34.9721 50 109.716
    endloop
  endfacet
  facet normal 0 1 0
    outer loop
      vertex 36.7845 50 108.889
      vertex 29.2155 50 108.889
      vertex 31.0279 50 109.716
    endloop
  endfacet
  facet normal 0 1 0
    outer loop
      vertex 39.9288 50 103
      vertex 36.7845 50 108.889
      vertex 38.2902 50 107.584
    endloop
  endfacet
  facet normal 0 1 0
    outer loop
      vertex 36.7845 50 108.889
      vertex 39.9288 50 103
      vertex 29.2155 50 108.889
    endloop
  endfacet
  facet normal 0 1 0
    outer loop
      vertex 39.9288 50 103
      vertex 38.2902 50 107.584
      vertex 39.3674 50 105.908
    endloop
  endfacet
  facet normal 0 1 0
    outer loop
      vertex 29.2155 50 108.889
      vertex 39.9288 50 103
      vertex 27.7098 50 107.584
    endloop
  endfacet
  facet normal 0 1 -0
    outer loop
      vertex 39.9288 50 103
      vertex 39.3674 50 105.908
      vertex 39.9288 50 103.996
    endloop
  endfacet
  facet normal 0 1 0
    outer loop
      vertex 27.7098 50 107.584
      vertex 39.9288 50 103
      vertex 26.6326 50 105.908
    endloop
  endfacet
  facet normal 0 1 0
    outer loop
      vertex 26.6326 50 105.908
      vertex 39.9288 50 103
      vertex 26.0713 50 103.996
    endloop
  endfacet
  facet normal 0 1 0
    outer loop
      vertex 26.0713 50 103.996
      vertex 39.9288 50 103
      vertex 26.0713 50 102.004
    endloop
  endfacet
  facet normal 1 0 0
    outer loop
      vertex 40 12.5685 43.5
      vertex 40 12.5 43.5
      vertex 40 12.5685 42.1934
    endloop
  endfacet
  facet normal 1 0 0
    outer loop
      vertex 40 37.5 43.5
      vertex 40 50 103
      vertex 40 37.5 103
    endloop
  endfacet
  facet normal 1 0 0
    outer loop
      vertex 40 50 103
      vertex 40 37.5 43.5
      vertex 40 50 35
    endloop
  endfacet
  facet normal 1 -0 0
    outer loop
      vertex 40 37.4315 42.1934
      vertex 40 50 35
      vertex 40 37.5 43.5
    endloop
  endfacet
  facet normal 1 -0 0
    outer loop
      vertex 40 36.8882 39.6373
      vertex 40 50 35
      vertex 40 37.4315 42.1934
    endloop
  endfacet
  facet normal 1 0 0
    outer loop
      vertex 40 37.4315 42.1934
      vertex 40 37.5 43.5
      vertex 40 37.4315 43.5
    endloop
  endfacet
  facet normal 1 0 0
    outer loop
      vertex 40 50 35
      vertex 40 36.8882 39.6373
      vertex 40 37.5 35
    endloop
  endfacet
  facet normal 1 -0 0
    outer loop
      vertex 40 35.8253 37.25
      vertex 40 37.5 35
      vertex 40 36.8882 39.6373
    endloop
  endfacet
  facet normal 1 -0 0
    outer loop
      vertex 40 34.2893 35.1359
      vertex 40 37.5 35
      vertex 40 35.8253 37.25
    endloop
  endfacet
  facet normal 1 0 0
    outer loop
      vertex 40 32.3473 33.3873
      vertex 40 37.5 35
      vertex 40 34.2893 35.1359
    endloop
  endfacet
  facet normal 1 0 0
    outer loop
      vertex 40 37.5 35
      vertex 40 32.3473 33.3873
      vertex 40 37.5 10.1
    endloop
  endfacet
  facet normal 1 -0 0
    outer loop
      vertex 40 30.0842 32.0807
      vertex 40 37.5 10.1
      vertex 40 32.3473 33.3873
    endloop
  endfacet
  facet normal 1 -0 0
    outer loop
      vertex 40 27.5989 31.2732
      vertex 40 37.5 10.1
      vertex 40 30.0842 32.0807
    endloop
  endfacet
  facet normal 1 -0 0
    outer loop
      vertex 40 25 31
      vertex 40 37.5 10.1
      vertex 40 27.5989 31.2732
    endloop
  endfacet
  facet normal 1 0 0
    outer loop
      vertex 40 12.5 10.1
      vertex 40 25 31
      vertex 40 22.4011 31.2732
    endloop
  endfacet
  facet normal 1 0 0
    outer loop
      vertex 40 12.5 10.1
      vertex 40 22.4011 31.2732
      vertex 40 19.9158 32.0807
    endloop
  endfacet
  facet normal 1 0 0
    outer loop
      vertex 40 12.5 10.1
      vertex 40 19.9158 32.0807
      vertex 40 17.6527 33.3873
    endloop
  endfacet
  facet normal 1 -0 0
    outer loop
      vertex 40 12.5 35
      vertex 40 17.6527 33.3873
      vertex 40 15.7107 35.1359
    endloop
  endfacet
  facet normal 1 0 0
    outer loop
      vertex 40 0 35
      vertex 40 12.5685 42.1934
      vertex 40 12.5 43.5
    endloop
  endfacet
  facet normal 1 0 0
    outer loop
      vertex 40 0 35
      vertex 40 13.1118 39.6373
      vertex 40 12.5685 42.1934
    endloop
  endfacet
  facet normal 1 0 0
    outer loop
      vertex 40 12.5 35
      vertex 40 14.1747 37.25
      vertex 40 13.1118 39.6373
    endloop
  endfacet
  facet normal 1 0 0
    outer loop
      vertex 40 12.5 35
      vertex 40 15.7107 35.1359
      vertex 40 14.1747 37.25
    endloop
  endfacet
  facet normal 1 0 0
    outer loop
      vertex 40 17.6527 33.3873
      vertex 40 12.5 35
      vertex 40 12.5 10.1
    endloop
  endfacet
  facet normal 1 0 0
    outer loop
      vertex 40 25 31
      vertex 40 12.5 10.1
      vertex 40 37.5 10.1
    endloop
  endfacet
  facet normal 1 -0 0
    outer loop
      vertex 40 0 103
      vertex 40 12.5 43.5
      vertex 40 12.5 103
    endloop
  endfacet
  facet normal 1 0 0
    outer loop
      vertex 40 0 35
      vertex 40 12.5 43.5
      vertex 40 0 103
    endloop
  endfacet
  facet normal 1 0 0
    outer loop
      vertex 40 13.1118 39.6373
      vertex 40 0 35
      vertex 40 12.5 35
    endloop
  endfacet
  facet normal 0 -1 0
    outer loop
      vertex 31.0279 0 109.716
      vertex 34.9721 0 109.716
      vertex 33 0 110
    endloop
  endfacet
  facet normal 0 -1 0
    outer loop
      vertex 29.2155 0 108.889
      vertex 34.9721 0 109.716
      vertex 31.0279 0 109.716
    endloop
  endfacet
  facet normal 0 -1 0
    outer loop
      vertex 29.2155 0 108.889
      vertex 36.7845 0 108.889
      vertex 34.9721 0 109.716
    endloop
  endfacet
  facet normal 0 -1 0
    outer loop
      vertex 27.7098 0 107.584
      vertex 36.7845 0 108.889
      vertex 29.2155 0 108.889
    endloop
  endfacet
  facet normal 0 -1 0
    outer loop
      vertex 39.9288 0 103
      vertex 36.7845 0 108.889
      vertex 27.7098 0 107.584
    endloop
  endfacet
  facet normal 0 -1 0
    outer loop
      vertex 39.9288 0 103
      vertex 27.7098 0 107.584
      vertex 26.6326 0 105.908
    endloop
  endfacet
  facet normal 0 -1 0
    outer loop
      vertex 36.7845 0 108.889
      vertex 39.9288 0 103
      vertex 38.2902 0 107.584
    endloop
  endfacet
  facet normal 0 -1 0
    outer loop
      vertex 39.9288 0 103
      vertex 26.6326 0 105.908
      vertex 26.0713 0 103.996
    endloop
  endfacet
  facet normal 0 -1 0
    outer loop
      vertex 38.2902 0 107.584
      vertex 39.9288 0 103
      vertex 39.3674 0 105.908
    endloop
  endfacet
  facet normal 0 -1 0
    outer loop
      vertex 39.3674 0 105.908
      vertex 39.9288 0 103
      vertex 39.9288 0 103.996
    endloop
  endfacet
  facet normal 0 -1 0
    outer loop
      vertex 26.0713 0 102.004
      vertex 39.9288 0 103
      vertex 26.0713 0 103.996
    endloop
  endfacet
  facet normal 0 -1 0
    outer loop
      vertex 30 0 96.753
      vertex 39.9288 0 103
      vertex 26.0713 0 102.004
    endloop
  endfacet
  facet normal 0 -1 0
    outer loop
      vertex 30 0 96.753
      vertex 26.0713 0 102.004
      vertex 26.6326 0 100.092
    endloop
  endfacet
  facet normal 0 -1 0
    outer loop
      vertex 30 0 96.753
      vertex 26.6326 0 100.092
      vertex 27.7098 0 98.416
    endloop
  endfacet
  facet normal 0 -1 0
    outer loop
      vertex 30 0 96.753
      vertex 27.7098 0 98.416
      vertex 29.2155 0 97.1112
    endloop
  endfacet
  facet normal 0 -1 -0
    outer loop
      vertex 39.9288 0 103
      vertex 30 0 96.753
      vertex 40 0 103
    endloop
  endfacet
  facet normal 0 -1 0
    outer loop
      vertex 30 0 96.753
      vertex 40 0 35
      vertex 40 0 103
    endloop
  endfacet
  facet normal 0 -1 0
    outer loop
      vertex 40 0 35
      vertex 40.137 0 32.3868
      vertex 40.137 0 35
    endloop
  endfacet
  facet normal 0 -1 0
    outer loop
      vertex 30 0 10.1
      vertex 40 0 35
      vertex 30 0 96.753
    endloop
  endfacet
  facet normal 0 -1 -0
    outer loop
      vertex 40 0 35
      vertex 30 0 10.1
      vertex 40.137 0 32.3868
    endloop
  endfacet
  facet normal 0 -1 0
    outer loop
      vertex 30 0 10.1
      vertex 41.2236 0 27.2746
      vertex 40.137 0 32.3868
    endloop
  endfacet
  facet normal 0 -1 0
    outer loop
      vertex 30 0 10.1
      vertex 43.3494 0 22.5
      vertex 41.2236 0 27.2746
    endloop
  endfacet
  facet normal 0 -1 0
    outer loop
      vertex 30 0 10.1
      vertex 46.4214 0 18.2717
      vertex 43.3494 0 22.5
    endloop
  endfacet
  facet normal 0 -1 0
    outer loop
      vertex 30 0 10.1
      vertex 50.3054 0 14.7746
      vertex 46.4214 0 18.2717
    endloop
  endfacet
  facet normal 0 -1 0
    outer loop
      vertex 30 0 10.1
      vertex 54.8316 0 12.1614
      vertex 50.3054 0 14.7746
    endloop
  endfacet
  facet normal 0 -1 0
    outer loop
      vertex 30 0 10.1
      vertex 59.8022 0 10.5463
      vertex 54.8316 0 12.1614
    endloop
  endfacet
  facet normal 0 -1 -0
    outer loop
      vertex 59.8022 0 10.5463
      vertex 30 0 10.1
      vertex 64.0486 0 10.1
    endloop
  endfacet
  facet normal 0.142313 0 0.989822
    outer loop
      vertex 33 12.5 110
      vertex 34.9721 0 109.716
      vertex 34.9721 12.5 109.716
    endloop
  endfacet
  facet normal 0.142313 0 0.989822
    outer loop
      vertex 34.9721 0 109.716
      vertex 33 12.5 110
      vertex 33 0 110
    endloop
  endfacet
  facet normal 0.142313 0 0.989822
    outer loop
      vertex 33 50 110
      vertex 34.9721 37.5 109.716
      vertex 34.9721 50 109.716
    endloop
  endfacet
  facet normal 0.142313 0 0.989822
    outer loop
      vertex 34.9721 37.5 109.716
      vertex 33 50 110
      vertex 33 37.5 110
    endloop
  endfacet
  facet normal 1 -0 0
    outer loop
      vertex 39.9288 0 103.996
      vertex 39.9288 12.5 103
      vertex 39.9288 12.5 103.996
    endloop
  endfacet
  facet normal 1 0 0
    outer loop
      vertex 39.9288 12.5 103
      vertex 39.9288 0 103.996
      vertex 39.9288 0 103
    endloop
  endfacet
  facet normal 1 -0 0
    outer loop
      vertex 39.9288 37.5 103.996
      vertex 39.9288 50 103
      vertex 39.9288 50 103.996
    endloop
  endfacet
  facet normal 1 0 0
    outer loop
      vertex 39.9288 50 103
      vertex 39.9288 37.5 103.996
      vertex 39.9288 37.5 103
    endloop
  endfacet
  facet normal 0.65486 0 0.75575
    outer loop
      vertex 36.7845 12.5 108.889
      vertex 38.2902 0 107.584
      vertex 38.2902 12.5 107.584
    endloop
  endfacet
  facet normal 0.65486 0 0.75575
    outer loop
      vertex 38.2902 0 107.584
      vertex 36.7845 12.5 108.889
      vertex 36.7845 0 108.889
    endloop
  endfacet
  facet normal 0.65486 0 0.75575
    outer loop
      vertex 36.7845 50 108.889
      vertex 38.2902 37.5 107.584
      vertex 38.2902 50 107.584
    endloop
  endfacet
  facet normal 0.65486 0 0.75575
    outer loop
      vertex 38.2902 37.5 107.584
      vertex 36.7845 50 108.889
      vertex 36.7845 37.5 108.889
    endloop
  endfacet
  facet normal 0.415418 0 0.909631
    outer loop
      vertex 34.9721 12.5 109.716
      vertex 36.7845 0 108.889
      vertex 36.7845 12.5 108.889
    endloop
  endfacet
  facet normal 0.415418 0 0.909631
    outer loop
      vertex 36.7845 0 108.889
      vertex 34.9721 12.5 109.716
      vertex 34.9721 0 109.716
    endloop
  endfacet
  facet normal 0.415418 0 0.909631
    outer loop
      vertex 34.9721 50 109.716
      vertex 36.7845 37.5 108.889
      vertex 36.7845 50 108.889
    endloop
  endfacet
  facet normal 0.415418 0 0.909631
    outer loop
      vertex 36.7845 37.5 108.889
      vertex 34.9721 50 109.716
      vertex 34.9721 37.5 109.716
    endloop
  endfacet
  facet normal -0.415417 0 0.909631
    outer loop
      vertex 29.2155 12.5 108.889
      vertex 31.0279 0 109.716
      vertex 31.0279 12.5 109.716
    endloop
  endfacet
  facet normal -0.415417 0 0.909631
    outer loop
      vertex 31.0279 0 109.716
      vertex 29.2155 12.5 108.889
      vertex 29.2155 0 108.889
    endloop
  endfacet
  facet normal -0.415417 0 0.909631
    outer loop
      vertex 29.2155 50 108.889
      vertex 31.0279 37.5 109.716
      vertex 31.0279 50 109.716
    endloop
  endfacet
  facet normal -0.415417 0 0.909631
    outer loop
      vertex 31.0279 37.5 109.716
      vertex 29.2155 50 108.889
      vertex 29.2155 37.5 108.889
    endloop
  endfacet
  facet normal -0.415421 0 -0.909629
    outer loop
      vertex 29.2155 0 97.1112
      vertex 30 12.5 96.753
      vertex 30 0 96.753
    endloop
  endfacet
  facet normal -0.415421 0 -0.909629
    outer loop
      vertex 30 12.5 96.753
      vertex 29.2155 0 97.1112
      vertex 29.2155 12.5 97.1112
    endloop
  endfacet
  facet normal -0.415421 0 -0.909629
    outer loop
      vertex 29.2155 37.5 97.1112
      vertex 30 50 96.753
      vertex 30 37.5 96.753
    endloop
  endfacet
  facet normal -0.415421 0 -0.909629
    outer loop
      vertex 30 50 96.753
      vertex 29.2155 37.5 97.1112
      vertex 29.2155 50 97.1112
    endloop
  endfacet
  facet normal 0.959493 -0 0.281733
    outer loop
      vertex 39.3674 0 105.908
      vertex 39.9288 12.5 103.996
      vertex 39.3674 12.5 105.908
    endloop
  endfacet
  facet normal 0.959493 0 0.281733
    outer loop
      vertex 39.9288 12.5 103.996
      vertex 39.3674 0 105.908
      vertex 39.9288 0 103.996
    endloop
  endfacet
  facet normal 0.959493 -0 0.281733
    outer loop
      vertex 39.3674 37.5 105.908
      vertex 39.9288 50 103.996
      vertex 39.3674 50 105.908
    endloop
  endfacet
  facet normal 0.959493 0 0.281733
    outer loop
      vertex 39.9288 50 103.996
      vertex 39.3674 37.5 105.908
      vertex 39.9288 37.5 103.996
    endloop
  endfacet
  facet normal 0.841253 -0 0.540641
    outer loop
      vertex 38.2902 0 107.584
      vertex 39.3674 12.5 105.908
      vertex 38.2902 12.5 107.584
    endloop
  endfacet
  facet normal 0.841253 0 0.540641
    outer loop
      vertex 39.3674 12.5 105.908
      vertex 38.2902 0 107.584
      vertex 39.3674 0 105.908
    endloop
  endfacet
  facet normal 0.841253 -0 0.540641
    outer loop
      vertex 38.2902 37.5 107.584
      vertex 39.3674 50 105.908
      vertex 38.2902 50 107.584
    endloop
  endfacet
  facet normal 0.841253 0 0.540641
    outer loop
      vertex 39.3674 50 105.908
      vertex 38.2902 37.5 107.584
      vertex 39.3674 37.5 105.908
    endloop
  endfacet
  facet normal -0.142314 0 0.989822
    outer loop
      vertex 31.0279 50 109.716
      vertex 33 37.5 110
      vertex 33 50 110
    endloop
  endfacet
  facet normal -0.142314 0 0.989822
    outer loop
      vertex 33 37.5 110
      vertex 31.0279 50 109.716
      vertex 31.0279 37.5 109.716
    endloop
  endfacet
  facet normal -0.142314 0 0.989822
    outer loop
      vertex 31.0279 12.5 109.716
      vertex 33 0 110
      vertex 33 12.5 110
    endloop
  endfacet
  facet normal -0.142314 0 0.989822
    outer loop
      vertex 33 0 110
      vertex 31.0279 12.5 109.716
      vertex 31.0279 0 109.716
    endloop
  endfacet
  facet normal -0.959493 0 0.281732
    outer loop
      vertex 26.0713 37.5 103.996
      vertex 26.6326 50 105.908
      vertex 26.0713 50 103.996
    endloop
  endfacet
  facet normal -0.959493 0 0.281732
    outer loop
      vertex 26.6326 50 105.908
      vertex 26.0713 37.5 103.996
      vertex 26.6326 37.5 105.908
    endloop
  endfacet
  facet normal -0.959493 0 0.281732
    outer loop
      vertex 26.0713 0 103.996
      vertex 26.6326 12.5 105.908
      vertex 26.0713 12.5 103.996
    endloop
  endfacet
  facet normal -0.959493 0 0.281732
    outer loop
      vertex 26.6326 12.5 105.908
      vertex 26.0713 0 103.996
      vertex 26.6326 0 105.908
    endloop
  endfacet
  facet normal -0.841253 0 -0.540641
    outer loop
      vertex 27.7098 0 98.416
      vertex 26.6326 12.5 100.092
      vertex 27.7098 12.5 98.416
    endloop
  endfacet
  facet normal -0.841253 -0 -0.540641
    outer loop
      vertex 26.6326 12.5 100.092
      vertex 27.7098 0 98.416
      vertex 26.6326 0 100.092
    endloop
  endfacet
  facet normal -0.841253 0 -0.540641
    outer loop
      vertex 27.7098 37.5 98.416
      vertex 26.6326 50 100.092
      vertex 27.7098 50 98.416
    endloop
  endfacet
  facet normal -0.841253 -0 -0.540641
    outer loop
      vertex 26.6326 50 100.092
      vertex 27.7098 37.5 98.416
      vertex 26.6326 37.5 100.092
    endloop
  endfacet
  facet normal -1 0 0
    outer loop
      vertex 26.0713 37.5 102.004
      vertex 26.0713 50 103.996
      vertex 26.0713 50 102.004
    endloop
  endfacet
  facet normal -1 -0 0
    outer loop
      vertex 26.0713 50 103.996
      vertex 26.0713 37.5 102.004
      vertex 26.0713 37.5 103.996
    endloop
  endfacet
  facet normal -1 0 0
    outer loop
      vertex 26.0713 0 102.004
      vertex 26.0713 12.5 103.996
      vertex 26.0713 12.5 102.004
    endloop
  endfacet
  facet normal -1 -0 0
    outer loop
      vertex 26.0713 12.5 103.996
      vertex 26.0713 0 102.004
      vertex 26.0713 0 103.996
    endloop
  endfacet
  facet normal -0.65486 0 -0.75575
    outer loop
      vertex 27.7098 0 98.416
      vertex 29.2155 12.5 97.1112
      vertex 29.2155 0 97.1112
    endloop
  endfacet
  facet normal -0.65486 0 -0.75575
    outer loop
      vertex 29.2155 12.5 97.1112
      vertex 27.7098 0 98.416
      vertex 27.7098 12.5 98.416
    endloop
  endfacet
  facet normal -0.65486 0 -0.75575
    outer loop
      vertex 27.7098 37.5 98.416
      vertex 29.2155 50 97.1112
      vertex 29.2155 37.5 97.1112
    endloop
  endfacet
  facet normal -0.65486 0 -0.75575
    outer loop
      vertex 29.2155 50 97.1112
      vertex 27.7098 37.5 98.416
      vertex 27.7098 50 98.416
    endloop
  endfacet
  facet normal -0.65486 0 0.75575
    outer loop
      vertex 27.7098 12.5 107.584
      vertex 29.2155 0 108.889
      vertex 29.2155 12.5 108.889
    endloop
  endfacet
  facet normal -0.65486 0 0.75575
    outer loop
      vertex 29.2155 0 108.889
      vertex 27.7098 12.5 107.584
      vertex 27.7098 0 107.584
    endloop
  endfacet
  facet normal -0.65486 0 0.75575
    outer loop
      vertex 27.7098 50 107.584
      vertex 29.2155 37.5 108.889
      vertex 29.2155 50 108.889
    endloop
  endfacet
  facet normal -0.65486 0 0.75575
    outer loop
      vertex 29.2155 37.5 108.889
      vertex 27.7098 50 107.584
      vertex 27.7098 37.5 107.584
    endloop
  endfacet
  facet normal -0.959493 0 -0.281732
    outer loop
      vertex 26.6326 0 100.092
      vertex 26.0713 12.5 102.004
      vertex 26.6326 12.5 100.092
    endloop
  endfacet
  facet normal -0.959493 -0 -0.281732
    outer loop
      vertex 26.0713 12.5 102.004
      vertex 26.6326 0 100.092
      vertex 26.0713 0 102.004
    endloop
  endfacet
  facet normal -0.959493 0 -0.281732
    outer loop
      vertex 26.6326 37.5 100.092
      vertex 26.0713 50 102.004
      vertex 26.6326 50 100.092
    endloop
  endfacet
  facet normal -0.959493 -0 -0.281732
    outer loop
      vertex 26.0713 50 102.004
      vertex 26.6326 37.5 100.092
      vertex 26.0713 37.5 102.004
    endloop
  endfacet
  facet normal -0.841253 0 0.540641
    outer loop
      vertex 26.6326 37.5 105.908
      vertex 27.7098 50 107.584
      vertex 26.6326 50 105.908
    endloop
  endfacet
  facet normal -0.841253 0 0.540641
    outer loop
      vertex 27.7098 50 107.584
      vertex 26.6326 37.5 105.908
      vertex 27.7098 37.5 107.584
    endloop
  endfacet
  facet normal -0.841253 0 0.540641
    outer loop
      vertex 26.6326 0 105.908
      vertex 27.7098 12.5 107.584
      vertex 26.6326 12.5 105.908
    endloop
  endfacet
  facet normal -0.841253 0 0.540641
    outer loop
      vertex 27.7098 12.5 107.584
      vertex 26.6326 0 105.908
      vertex 27.7098 0 107.584
    endloop
  endfacet
  facet normal -0 0 1
    outer loop
      vertex 30 37.5 43.5
      vertex 40 37.4315 43.5
      vertex 40 37.5 43.5
    endloop
  endfacet
  facet normal 0 0 1
    outer loop
      vertex 40 37.4315 43.5
      vertex 30 37.5 43.5
      vertex 30 37.4315 43.5
    endloop
  endfacet
  facet normal -0 0 1
    outer loop
      vertex 30 12.5685 43.5
      vertex 40 12.5 43.5
      vertex 40 12.5685 43.5
    endloop
  endfacet
  facet normal 0 0 1
    outer loop
      vertex 40 12.5 43.5
      vertex 30 12.5685 43.5
      vertex 30 12.5 43.5
    endloop
  endfacet
  facet normal 0 1 0
    outer loop
      vertex 30 12.5 96.753
      vertex 39.9288 12.5 103
      vertex 40 12.5 103
    endloop
  endfacet
  facet normal 0 1 0
    outer loop
      vertex 39.9288 12.5 103
      vertex 30 12.5 96.753
      vertex 26.0713 12.5 102.004
    endloop
  endfacet
  facet normal 0 1 0
    outer loop
      vertex 26.0713 12.5 102.004
      vertex 30 12.5 96.753
      vertex 26.6326 12.5 100.092
    endloop
  endfacet
  facet normal 0 1 0
    outer loop
      vertex 26.6326 12.5 100.092
      vertex 30 12.5 96.753
      vertex 27.7098 12.5 98.416
    endloop
  endfacet
  facet normal 0 1 0
    outer loop
      vertex 27.7098 12.5 98.416
      vertex 30 12.5 96.753
      vertex 29.2155 12.5 97.1112
    endloop
  endfacet
  facet normal 0 1 -0
    outer loop
      vertex 40 12.5 43.5
      vertex 30 12.5 96.753
      vertex 40 12.5 103
    endloop
  endfacet
  facet normal 0 1 0
    outer loop
      vertex 30 12.5 96.753
      vertex 40 12.5 43.5
      vertex 30 12.5 43.5
    endloop
  endfacet
  facet normal 0 1 0
    outer loop
      vertex 34.9721 12.5 109.716
      vertex 31.0279 12.5 109.716
      vertex 33 12.5 110
    endloop
  endfacet
  facet normal 0 1 0
    outer loop
      vertex 36.7845 12.5 108.889
      vertex 31.0279 12.5 109.716
      vertex 34.9721 12.5 109.716
    endloop
  endfacet
  facet normal 0 1 0
    outer loop
      vertex 36.7845 12.5 108.889
      vertex 29.2155 12.5 108.889
      vertex 31.0279 12.5 109.716
    endloop
  endfacet
  facet normal 0 1 0
    outer loop
      vertex 39.9288 12.5 103
      vertex 36.7845 12.5 108.889
      vertex 38.2902 12.5 107.584
    endloop
  endfacet
  facet normal 0 1 0
    outer loop
      vertex 36.7845 12.5 108.889
      vertex 39.9288 12.5 103
      vertex 29.2155 12.5 108.889
    endloop
  endfacet
  facet normal 0 1 0
    outer loop
      vertex 39.9288 12.5 103
      vertex 38.2902 12.5 107.584
      vertex 39.3674 12.5 105.908
    endloop
  endfacet
  facet normal 0 1 0
    outer loop
      vertex 29.2155 12.5 108.889
      vertex 39.9288 12.5 103
      vertex 27.7098 12.5 107.584
    endloop
  endfacet
  facet normal 0 1 -0
    outer loop
      vertex 39.9288 12.5 103
      vertex 39.3674 12.5 105.908
      vertex 39.9288 12.5 103.996
    endloop
  endfacet
  facet normal 0 1 0
    outer loop
      vertex 27.7098 12.5 107.584
      vertex 39.9288 12.5 103
      vertex 26.6326 12.5 105.908
    endloop
  endfacet
  facet normal 0 1 0
    outer loop
      vertex 26.6326 12.5 105.908
      vertex 39.9288 12.5 103
      vertex 26.0713 12.5 103.996
    endloop
  endfacet
  facet normal 0 1 0
    outer loop
      vertex 26.0713 12.5 103.996
      vertex 39.9288 12.5 103
      vertex 26.0713 12.5 102.004
    endloop
  endfacet
  facet normal 0 -1 0
    outer loop
      vertex 31.0279 37.5 109.716
      vertex 34.9721 37.5 109.716
      vertex 33 37.5 110
    endloop
  endfacet
  facet normal 0 -1 0
    outer loop
      vertex 29.2155 37.5 108.889
      vertex 34.9721 37.5 109.716
      vertex 31.0279 37.5 109.716
    endloop
  endfacet
  facet normal 0 -1 0
    outer loop
      vertex 29.2155 37.5 108.889
      vertex 36.7845 37.5 108.889
      vertex 34.9721 37.5 109.716
    endloop
  endfacet
  facet normal 0 -1 0
    outer loop
      vertex 27.7098 37.5 107.584
      vertex 36.7845 37.5 108.889
      vertex 29.2155 37.5 108.889
    endloop
  endfacet
  facet normal 0 -1 0
    outer loop
      vertex 39.9288 37.5 103
      vertex 36.7845 37.5 108.889
      vertex 27.7098 37.5 107.584
    endloop
  endfacet
  facet normal 0 -1 0
    outer loop
      vertex 39.9288 37.5 103
      vertex 27.7098 37.5 107.584
      vertex 26.6326 37.5 105.908
    endloop
  endfacet
  facet normal 0 -1 0
    outer loop
      vertex 36.7845 37.5 108.889
      vertex 39.9288 37.5 103
      vertex 38.2902 37.5 107.584
    endloop
  endfacet
  facet normal 0 -1 0
    outer loop
      vertex 39.9288 37.5 103
      vertex 26.6326 37.5 105.908
      vertex 26.0713 37.5 103.996
    endloop
  endfacet
  facet normal 0 -1 0
    outer loop
      vertex 38.2902 37.5 107.584
      vertex 39.9288 37.5 103
      vertex 39.3674 37.5 105.908
    endloop
  endfacet
  facet normal 0 -1 0
    outer loop
      vertex 39.3674 37.5 105.908
      vertex 39.9288 37.5 103
      vertex 39.9288 37.5 103.996
    endloop
  endfacet
  facet normal 0 -1 0
    outer loop
      vertex 26.0713 37.5 102.004
      vertex 39.9288 37.5 103
      vertex 26.0713 37.5 103.996
    endloop
  endfacet
  facet normal 0 -1 0
    outer loop
      vertex 30 37.5 96.753
      vertex 39.9288 37.5 103
      vertex 26.0713 37.5 102.004
    endloop
  endfacet
  facet normal 0 -1 0
    outer loop
      vertex 30 37.5 96.753
      vertex 26.0713 37.5 102.004
      vertex 26.6326 37.5 100.092
    endloop
  endfacet
  facet normal 0 -1 0
    outer loop
      vertex 30 37.5 96.753
      vertex 26.6326 37.5 100.092
      vertex 27.7098 37.5 98.416
    endloop
  endfacet
  facet normal 0 -1 0
    outer loop
      vertex 30 37.5 96.753
      vertex 27.7098 37.5 98.416
      vertex 29.2155 37.5 97.1112
    endloop
  endfacet
  facet normal 0 -1 -0
    outer loop
      vertex 39.9288 37.5 103
      vertex 30 37.5 96.753
      vertex 40 37.5 103
    endloop
  endfacet
  facet normal 0 -1 0
    outer loop
      vertex 40 37.5 43.5
      vertex 30 37.5 96.753
      vertex 30 37.5 43.5
    endloop
  endfacet
  facet normal 0 -1 0
    outer loop
      vertex 30 37.5 96.753
      vertex 40 37.5 43.5
      vertex 40 37.5 103
    endloop
  endfacet
  facet normal 0 0.913546 0.406736
    outer loop
      vertex 40 14.1747 37.25
      vertex 30 13.1118 39.6373
      vertex 40 13.1118 39.6373
    endloop
  endfacet
  facet normal 0 0.913546 0.406736
    outer loop
      vertex 30 13.1118 39.6373
      vertex 40 14.1747 37.25
      vertex 30 14.1747 37.25
    endloop
  endfacet
  facet normal 0 -0.104528 0.994522
    outer loop
      vertex 30 27.5989 31.2732
      vertex 40 25 31
      vertex 40 27.5989 31.2732
    endloop
  endfacet
  facet normal 0 -0.104528 0.994522
    outer loop
      vertex 40 25 31
      vertex 30 27.5989 31.2732
      vertex 30 25 31
    endloop
  endfacet
  facet normal 0 -1 0
    outer loop
      vertex 30 37.4315 42.1934
      vertex 40 37.4315 43.5
      vertex 30 37.4315 43.5
    endloop
  endfacet
  facet normal 0 -1 -0
    outer loop
      vertex 40 37.4315 43.5
      vertex 30 37.4315 42.1934
      vertex 40 37.4315 42.1934
    endloop
  endfacet
  facet normal 0 1 -0
    outer loop
      vertex 40 12.5685 42.1934
      vertex 30 12.5685 43.5
      vertex 40 12.5685 43.5
    endloop
  endfacet
  facet normal 0 1 0
    outer loop
      vertex 30 12.5685 43.5
      vertex 40 12.5685 42.1934
      vertex 30 12.5685 42.1934
    endloop
  endfacet
  facet normal 0 -0.669131 0.743144
    outer loop
      vertex 30 34.2893 35.1359
      vertex 40 32.3473 33.3873
      vertex 40 34.2893 35.1359
    endloop
  endfacet
  facet normal 0 -0.669131 0.743144
    outer loop
      vertex 40 32.3473 33.3873
      vertex 30 34.2893 35.1359
      vertex 30 32.3473 33.3873
    endloop
  endfacet
  facet normal -0 0.309017 0.951057
    outer loop
      vertex 30 22.4011 31.2732
      vertex 40 19.9158 32.0807
      vertex 40 22.4011 31.2732
    endloop
  endfacet
  facet normal 0 0.309017 0.951057
    outer loop
      vertex 40 19.9158 32.0807
      vertex 30 22.4011 31.2732
      vertex 30 19.9158 32.0807
    endloop
  endfacet
  facet normal -0 0.5 0.866025
    outer loop
      vertex 30 19.9158 32.0807
      vertex 40 17.6527 33.3873
      vertex 40 19.9158 32.0807
    endloop
  endfacet
  facet normal 0 0.5 0.866025
    outer loop
      vertex 40 17.6527 33.3873
      vertex 30 19.9158 32.0807
      vertex 30 17.6527 33.3873
    endloop
  endfacet
  facet normal -0 0.669131 0.743145
    outer loop
      vertex 30 17.6527 33.3873
      vertex 40 15.7107 35.1359
      vertex 40 17.6527 33.3873
    endloop
  endfacet
  facet normal 0 0.669131 0.743145
    outer loop
      vertex 40 15.7107 35.1359
      vertex 30 17.6527 33.3873
      vertex 30 15.7107 35.1359
    endloop
  endfacet
  facet normal 0 0.809017 0.587786
    outer loop
      vertex 40 15.7107 35.1359
      vertex 30 14.1747 37.25
      vertex 40 14.1747 37.25
    endloop
  endfacet
  facet normal 0 0.809017 0.587786
    outer loop
      vertex 30 14.1747 37.25
      vertex 40 15.7107 35.1359
      vertex 30 15.7107 35.1359
    endloop
  endfacet
  facet normal 0 0.978148 0.207912
    outer loop
      vertex 40 13.1118 39.6373
      vertex 30 12.5685 42.1934
      vertex 40 12.5685 42.1934
    endloop
  endfacet
  facet normal 0 0.978148 0.207912
    outer loop
      vertex 30 12.5685 42.1934
      vertex 40 13.1118 39.6373
      vertex 30 13.1118 39.6373
    endloop
  endfacet
  facet normal -0 0.104529 0.994522
    outer loop
      vertex 30 25 31
      vertex 40 22.4011 31.2732
      vertex 40 25 31
    endloop
  endfacet
  facet normal 0 0.104529 0.994522
    outer loop
      vertex 40 22.4011 31.2732
      vertex 30 25 31
      vertex 30 22.4011 31.2732
    endloop
  endfacet
  facet normal 0 -0.978147 0.207913
    outer loop
      vertex 30 36.8882 39.6373
      vertex 40 37.4315 42.1934
      vertex 30 37.4315 42.1934
    endloop
  endfacet
  facet normal 0 -0.978147 0.207913
    outer loop
      vertex 40 37.4315 42.1934
      vertex 30 36.8882 39.6373
      vertex 40 36.8882 39.6373
    endloop
  endfacet
  facet normal 0 -0.5 0.866025
    outer loop
      vertex 30 32.3473 33.3873
      vertex 40 30.0842 32.0807
      vertex 40 32.3473 33.3873
    endloop
  endfacet
  facet normal 0 -0.5 0.866025
    outer loop
      vertex 40 30.0842 32.0807
      vertex 30 32.3473 33.3873
      vertex 30 30.0842 32.0807
    endloop
  endfacet
  facet normal 0 -0.309017 0.951057
    outer loop
      vertex 30 30.0842 32.0807
      vertex 40 27.5989 31.2732
      vertex 40 30.0842 32.0807
    endloop
  endfacet
  facet normal 0 -0.309017 0.951057
    outer loop
      vertex 40 27.5989 31.2732
      vertex 30 30.0842 32.0807
      vertex 30 27.5989 31.2732
    endloop
  endfacet
  facet normal 0 -0.913545 0.406737
    outer loop
      vertex 30 35.8253 37.25
      vertex 40 36.8882 39.6373
      vertex 30 36.8882 39.6373
    endloop
  endfacet
  facet normal 0 -0.913545 0.406737
    outer loop
      vertex 40 36.8882 39.6373
      vertex 30 35.8253 37.25
      vertex 40 35.8253 37.25
    endloop
  endfacet
  facet normal 0 -0.809017 0.587785
    outer loop
      vertex 30 34.2893 35.1359
      vertex 40 35.8253 37.25
      vertex 30 35.8253 37.25
    endloop
  endfacet
  facet normal 0 -0.809017 0.587785
    outer loop
      vertex 40 35.8253 37.25
      vertex 30 34.2893 35.1359
      vertex 40 34.2893 35.1359
    endloop
  endfacet
  facet normal -0 0 1
    outer loop
      vertex 40 12.5 35
      vertex 40.137 0 35
      vertex 40.137 12.5 35
    endloop
  endfacet
  facet normal 0 0 1
    outer loop
      vertex 40.137 0 35
      vertex 40 12.5 35
      vertex 40 0 35
    endloop
  endfacet
  facet normal 0 1 -0
    outer loop
      vertex 40.137 12.5 32.3868
      vertex 40 12.5 35
      vertex 40.137 12.5 35
    endloop
  endfacet
  facet normal 0 1 0
    outer loop
      vertex 40.137 12.5 32.3868
      vertex 40 12.5 10.1
      vertex 40 12.5 35
    endloop
  endfacet
  facet normal 0 1 0
    outer loop
      vertex 41.2236 12.5 27.2746
      vertex 40 12.5 10.1
      vertex 40.137 12.5 32.3868
    endloop
  endfacet
  facet normal 0 1 0
    outer loop
      vertex 43.3494 12.5 22.5
      vertex 40 12.5 10.1
      vertex 41.2236 12.5 27.2746
    endloop
  endfacet
  facet normal 0 1 0
    outer loop
      vertex 46.4214 12.5 18.2717
      vertex 40 12.5 10.1
      vertex 43.3494 12.5 22.5
    endloop
  endfacet
  facet normal 0 1 0
    outer loop
      vertex 50.3054 12.5 14.7746
      vertex 40 12.5 10.1
      vertex 46.4214 12.5 18.2717
    endloop
  endfacet
  facet normal 0 1 0
    outer loop
      vertex 54.8316 12.5 12.1614
      vertex 40 12.5 10.1
      vertex 50.3054 12.5 14.7746
    endloop
  endfacet
  facet normal 0 1 0
    outer loop
      vertex 59.8022 12.5 10.5463
      vertex 40 12.5 10.1
      vertex 54.8316 12.5 12.1614
    endloop
  endfacet
  facet normal 0 1 0
    outer loop
      vertex 40 12.5 10.1
      vertex 59.8022 12.5 10.5463
      vertex 64.0486 12.5 10.1
    endloop
  endfacet
  facet normal 0.978148 -0 0.207912
    outer loop
      vertex 40.137 0 32.3868
      vertex 41.2236 12.5 27.2746
      vertex 40.137 12.5 32.3868
    endloop
  endfacet
  facet normal 0.978148 0 0.207912
    outer loop
      vertex 41.2236 12.5 27.2746
      vertex 40.137 0 32.3868
      vertex 41.2236 0 27.2746
    endloop
  endfacet
  facet normal 0.309017 0 0.951057
    outer loop
      vertex 54.8316 12.5 12.1614
      vertex 59.8022 0 10.5463
      vertex 59.8022 12.5 10.5463
    endloop
  endfacet
  facet normal 0.309017 0 0.951057
    outer loop
      vertex 59.8022 0 10.5463
      vertex 54.8316 12.5 12.1614
      vertex 54.8316 0 12.1614
    endloop
  endfacet
  facet normal 0.5 0 0.866025
    outer loop
      vertex 50.3054 12.5 14.7746
      vertex 54.8316 0 12.1614
      vertex 54.8316 12.5 12.1614
    endloop
  endfacet
  facet normal 0.5 0 0.866025
    outer loop
      vertex 54.8316 0 12.1614
      vertex 50.3054 12.5 14.7746
      vertex 50.3054 0 14.7746
    endloop
  endfacet
  facet normal 0.104528 0 0.994522
    outer loop
      vertex 59.8022 12.5 10.5463
      vertex 64.0486 0 10.1
      vertex 64.0486 12.5 10.1
    endloop
  endfacet
  facet normal 0.104528 0 0.994522
    outer loop
      vertex 64.0486 0 10.1
      vertex 59.8022 12.5 10.5463
      vertex 59.8022 0 10.5463
    endloop
  endfacet
  facet normal 0.669131 0 0.743145
    outer loop
      vertex 46.4214 12.5 18.2717
      vertex 50.3054 0 14.7746
      vertex 50.3054 12.5 14.7746
    endloop
  endfacet
  facet normal 0.669131 0 0.743145
    outer loop
      vertex 50.3054 0 14.7746
      vertex 46.4214 12.5 18.2717
      vertex 46.4214 0 18.2717
    endloop
  endfacet
  facet normal 0.809017 -0 0.587785
    outer loop
      vertex 43.3494 0 22.5
      vertex 46.4214 12.5 18.2717
      vertex 43.3494 12.5 22.5
    endloop
  endfacet
  facet normal 0.809017 0 0.587785
    outer loop
      vertex 46.4214 12.5 18.2717
      vertex 43.3494 0 22.5
      vertex 46.4214 0 18.2717
    endloop
  endfacet
  facet normal 0.913545 -0 0.406737
    outer loop
      vertex 41.2236 0 27.2746
      vertex 43.3494 12.5 22.5
      vertex 41.2236 12.5 27.2746
    endloop
  endfacet
  facet normal 0.913545 0 0.406737
    outer loop
      vertex 43.3494 12.5 22.5
      vertex 41.2236 0 27.2746
      vertex 43.3494 0 22.5
    endloop
  endfacet
  facet normal 1 -0 0
    outer loop
      vertex 40.137 0 35
      vertex 40.137 12.5 32.3868
      vertex 40.137 12.5 35
    endloop
  endfacet
  facet normal 1 0 0
    outer loop
      vertex 40.137 12.5 32.3868
      vertex 40.137 0 35
      vertex 40.137 0 32.3868
    endloop
  endfacet
  facet normal -0 0 1
    outer loop
      vertex 40 50 35
      vertex 40.137 37.5 35
      vertex 40.137 50 35
    endloop
  endfacet
  facet normal 0 0 1
    outer loop
      vertex 40.137 37.5 35
      vertex 40 50 35
      vertex 40 37.5 35
    endloop
  endfacet
  facet normal 0 -1 0
    outer loop
      vertex 40 37.5 35
      vertex 40.137 37.5 32.3868
      vertex 40.137 37.5 35
    endloop
  endfacet
  facet normal 0 -1 0
    outer loop
      vertex 40 37.5 10.1
      vertex 40.137 37.5 32.3868
      vertex 40 37.5 35
    endloop
  endfacet
  facet normal 0 -1 0
    outer loop
      vertex 40 37.5 10.1
      vertex 41.2236 37.5 27.2746
      vertex 40.137 37.5 32.3868
    endloop
  endfacet
  facet normal 0 -1 0
    outer loop
      vertex 40 37.5 10.1
      vertex 43.3494 37.5 22.5
      vertex 41.2236 37.5 27.2746
    endloop
  endfacet
  facet normal 0 -1 0
    outer loop
      vertex 40 37.5 10.1
      vertex 46.4214 37.5 18.2717
      vertex 43.3494 37.5 22.5
    endloop
  endfacet
  facet normal 0 -1 0
    outer loop
      vertex 40 37.5 10.1
      vertex 50.3054 37.5 14.7746
      vertex 46.4214 37.5 18.2717
    endloop
  endfacet
  facet normal 0 -1 0
    outer loop
      vertex 40 37.5 10.1
      vertex 54.8316 37.5 12.1614
      vertex 50.3054 37.5 14.7746
    endloop
  endfacet
  facet normal 0 -1 0
    outer loop
      vertex 40 37.5 10.1
      vertex 59.8022 37.5 10.5463
      vertex 54.8316 37.5 12.1614
    endloop
  endfacet
  facet normal 0 -1 -0
    outer loop
      vertex 59.8022 37.5 10.5463
      vertex 40 37.5 10.1
      vertex 64.0486 37.5 10.1
    endloop
  endfacet
  facet normal 0.978148 -0 0.207912
    outer loop
      vertex 40.137 37.5 32.3868
      vertex 41.2236 50 27.2746
      vertex 40.137 50 32.3868
    endloop
  endfacet
  facet normal 0.978148 0 0.207912
    outer loop
      vertex 41.2236 50 27.2746
      vertex 40.137 37.5 32.3868
      vertex 41.2236 37.5 27.2746
    endloop
  endfacet
  facet normal 0.309017 0 0.951057
    outer loop
      vertex 54.8316 50 12.1614
      vertex 59.8022 37.5 10.5463
      vertex 59.8022 50 10.5463
    endloop
  endfacet
  facet normal 0.309017 0 0.951057
    outer loop
      vertex 59.8022 37.5 10.5463
      vertex 54.8316 50 12.1614
      vertex 54.8316 37.5 12.1614
    endloop
  endfacet
  facet normal 0.5 0 0.866025
    outer loop
      vertex 50.3054 50 14.7746
      vertex 54.8316 37.5 12.1614
      vertex 54.8316 50 12.1614
    endloop
  endfacet
  facet normal 0.5 0 0.866025
    outer loop
      vertex 54.8316 37.5 12.1614
      vertex 50.3054 50 14.7746
      vertex 50.3054 37.5 14.7746
    endloop
  endfacet
  facet normal 0.104528 0 0.994522
    outer loop
      vertex 59.8022 50 10.5463
      vertex 64.0486 37.5 10.1
      vertex 64.0486 50 10.1
    endloop
  endfacet
  facet normal 0.104528 0 0.994522
    outer loop
      vertex 64.0486 37.5 10.1
      vertex 59.8022 50 10.5463
      vertex 59.8022 37.5 10.5463
    endloop
  endfacet
  facet normal 0.669131 0 0.743145
    outer loop
      vertex 46.4214 50 18.2717
      vertex 50.3054 37.5 14.7746
      vertex 50.3054 50 14.7746
    endloop
  endfacet
  facet normal 0.669131 0 0.743145
    outer loop
      vertex 50.3054 37.5 14.7746
      vertex 46.4214 50 18.2717
      vertex 46.4214 37.5 18.2717
    endloop
  endfacet
  facet normal 0.809017 -0 0.587785
    outer loop
      vertex 43.3494 37.5 22.5
      vertex 46.4214 50 18.2717
      vertex 43.3494 50 22.5
    endloop
  endfacet
  facet normal 0.809017 0 0.587785
    outer loop
      vertex 46.4214 50 18.2717
      vertex 43.3494 37.5 22.5
      vertex 46.4214 37.5 18.2717
    endloop
  endfacet
  facet normal 0.913545 -0 0.406737
    outer loop
      vertex 41.2236 37.5 27.2746
      vertex 43.3494 50 22.5
      vertex 41.2236 50 27.2746
    endloop
  endfacet
  facet normal 0.913545 0 0.406737
    outer loop
      vertex 43.3494 50 22.5
      vertex 41.2236 37.5 27.2746
      vertex 43.3494 37.5 22.5
    endloop
  endfacet
  facet normal 1 -0 0
    outer loop
      vertex 40.137 37.5 35
      vertex 40.137 50 32.3868
      vertex 40.137 50 35
    endloop
  endfacet
  facet normal 1 0 0
    outer loop
      vertex 40.137 50 32.3868
      vertex 40.137 37.5 35
      vertex 40.137 37.5 32.3868
    endloop
  endfacet
  facet normal -0.55557 0.83147 0
    outer loop
      vertex -1.91342 54.6194 10.1
      vertex -3.53553 53.5355 2.29895e-14
      vertex -3.53553 53.5355 10.1
    endloop
  endfacet
  facet normal -0.55557 0.83147 0
    outer loop
      vertex -3.53553 53.5355 2.29895e-14
      vertex -1.91342 54.6194 10.1
      vertex -1.91342 54.6194 2.26293e-14
    endloop
  endfacet
  facet normal -0.980785 -0.195091 0
    outer loop
      vertex -4.6194 -1.91342 2.32302e-14
      vertex -5 0 10.1
      vertex -5 0 2.33147e-14
    endloop
  endfacet
  facet normal -0.980785 -0.195091 0
    outer loop
      vertex -5 0 10.1
      vertex -4.6194 -1.91342 2.32302e-14
      vertex -4.6194 -1.91342 10.1
    endloop
  endfacet
  facet normal -0.55557 -0.83147 0
    outer loop
      vertex -3.53553 -3.53553 2.29895e-14
      vertex -1.91342 -4.6194 10.1
      vertex -3.53553 -3.53553 10.1
    endloop
  endfacet
  facet normal -0.55557 -0.83147 -0
    outer loop
      vertex -1.91342 -4.6194 10.1
      vertex -3.53553 -3.53553 2.29895e-14
      vertex -1.91342 -4.6194 2.26293e-14
    endloop
  endfacet
  facet normal -0.195091 -0.980785 0
    outer loop
      vertex -1.91342 -4.6194 2.26293e-14
      vertex 2.24265e-15 -5 10.1
      vertex -1.91342 -4.6194 10.1
    endloop
  endfacet
  facet normal -0.195091 -0.980785 4.33188e-17
    outer loop
      vertex 2.24265e-15 -5 10.1
      vertex -1.91342 -4.6194 2.26293e-14
      vertex 0 -5 2.22045e-14
    endloop
  endfacet
  facet normal -1 0 0
    outer loop
      vertex -5 0 2.33147e-14
      vertex -5 50 10.1
      vertex -5 50 2.33147e-14
    endloop
  endfacet
  facet normal -1 -0 0
    outer loop
      vertex -5 50 10.1
      vertex -5 0 2.33147e-14
      vertex -5 0 10.1
    endloop
  endfacet
  facet normal -0.83147 -0.55557 0
    outer loop
      vertex -3.53553 -3.53553 2.29895e-14
      vertex -4.6194 -1.91342 10.1
      vertex -4.6194 -1.91342 2.32302e-14
    endloop
  endfacet
  facet normal -0.83147 -0.55557 0
    outer loop
      vertex -4.6194 -1.91342 10.1
      vertex -3.53553 -3.53553 2.29895e-14
      vertex -3.53553 -3.53553 10.1
    endloop
  endfacet
  facet normal -0.980785 0.195091 0
    outer loop
      vertex -5 50 2.33147e-14
      vertex -4.6194 51.9134 10.1
      vertex -4.6194 51.9134 2.32302e-14
    endloop
  endfacet
  facet normal -0.980785 0.195091 0
    outer loop
      vertex -4.6194 51.9134 10.1
      vertex -5 50 2.33147e-14
      vertex -5 50 10.1
    endloop
  endfacet
  facet normal -0.83147 0.55557 0
    outer loop
      vertex -4.6194 51.9134 2.32302e-14
      vertex -3.53553 53.5355 10.1
      vertex -3.53553 53.5355 2.29895e-14
    endloop
  endfacet
  facet normal -0.83147 0.55557 0
    outer loop
      vertex -3.53553 53.5355 10.1
      vertex -4.6194 51.9134 2.32302e-14
      vertex -4.6194 51.9134 10.1
    endloop
  endfacet
  facet normal -2.22044e-16 -4.14449e-22 -1
    outer loop
      vertex 100 -5 0
      vertex 105 0 -1.11022e-15
      vertex 104.619 -1.91342 -1.02571e-15
    endloop
  endfacet
  facet normal -2.22045e-16 0 -1
    outer loop
      vertex 105 0 -1.11022e-15
      vertex 100 -5 0
      vertex 105 50 -1.11022e-15
    endloop
  endfacet
  facet normal -2.22044e-16 -4.01841e-22 -1
    outer loop
      vertex 100 -5 0
      vertex 104.619 -1.91342 -1.02571e-15
      vertex 103.536 -3.53553 -7.85046e-16
    endloop
  endfacet
  facet normal -2.22045e-16 -0 -1
    outer loop
      vertex 100 55 0
      vertex 105 50 -1.11022e-15
      vertex 100 -5 0
    endloop
  endfacet
  facet normal -2.22045e-16 2.65484e-21 -1
    outer loop
      vertex 100 -5 0
      vertex 103.536 -3.53553 -7.85046e-16
      vertex 101.913 -4.6194 -4.24864e-16
    endloop
  endfacet
  facet normal -2.22044e-16 4.14449e-22 -1
    outer loop
      vertex 105 50 -1.11022e-15
      vertex 100 55 0
      vertex 104.619 51.9134 -1.02571e-15
    endloop
  endfacet
  facet normal -2.22044e-16 4.01841e-22 -1
    outer loop
      vertex 104.619 51.9134 -1.02571e-15
      vertex 100 55 0
      vertex 103.536 53.5355 -7.85046e-16
    endloop
  endfacet
  facet normal -2.22045e-16 -2.65485e-21 -1
    outer loop
      vertex 103.536 53.5355 -7.85046e-16
      vertex 100 55 0
      vertex 101.913 54.6194 -4.24864e-16
    endloop
  endfacet
  facet normal -2.22045e-16 0 -1
    outer loop
      vertex 0 -5 2.22045e-14
      vertex 100 55 0
      vertex 100 -5 0
    endloop
  endfacet
  facet normal -2.22045e-16 0 -1
    outer loop
      vertex 0 -5 2.22045e-14
      vertex 0 55 2.22045e-14
      vertex 100 55 0
    endloop
  endfacet
  facet normal -2.22044e-16 4.1445e-22 -1
    outer loop
      vertex -5 0 2.33147e-14
      vertex 0 -5 2.22045e-14
      vertex -1.91342 -4.6194 2.26293e-14
    endloop
  endfacet
  facet normal -2.22045e-16 0 -1
    outer loop
      vertex 0 -5 2.22045e-14
      vertex -5 0 2.33147e-14
      vertex 0 55 2.22045e-14
    endloop
  endfacet
  facet normal -2.22046e-16 -8.54622e-22 -1
    outer loop
      vertex -5 0 2.33147e-14
      vertex -1.91342 -4.6194 2.26293e-14
      vertex -3.53553 -3.53553 2.29895e-14
    endloop
  endfacet
  facet normal -2.22045e-16 -0 -1
    outer loop
      vertex -5 50 2.33147e-14
      vertex 0 55 2.22045e-14
      vertex -5 0 2.33147e-14
    endloop
  endfacet
  facet normal -2.22045e-16 -4.17408e-22 -1
    outer loop
      vertex -5 0 2.33147e-14
      vertex -3.53553 -3.53553 2.29895e-14
      vertex -4.6194 -1.91342 2.32302e-14
    endloop
  endfacet
  facet normal -2.22044e-16 -4.1445e-22 -1
    outer loop
      vertex 0 55 2.22045e-14
      vertex -5 50 2.33147e-14
      vertex -1.91342 54.6194 2.26293e-14
    endloop
  endfacet
  facet normal -2.22046e-16 8.54622e-22 -1
    outer loop
      vertex -1.91342 54.6194 2.26293e-14
      vertex -5 50 2.33147e-14
      vertex -3.53553 53.5355 2.29895e-14
    endloop
  endfacet
  facet normal -2.22045e-16 4.17408e-22 -1
    outer loop
      vertex -3.53553 53.5355 2.29895e-14
      vertex -5 50 2.33147e-14
      vertex -4.6194 51.9134 2.32302e-14
    endloop
  endfacet
  facet normal 0.980786 -0.195089 0
    outer loop
      vertex 104.619 -1.91342 10.1
      vertex 105 0 -1.11022e-15
      vertex 105 0 10.1
    endloop
  endfacet
  facet normal 0.980786 -0.195089 0
    outer loop
      vertex 105 0 -1.11022e-15
      vertex 104.619 -1.91342 10.1
      vertex 104.619 -1.91342 -1.02571e-15
    endloop
  endfacet
  facet normal -0.195091 0.980785 0
    outer loop
      vertex 2.24265e-15 55 10.1
      vertex -1.91342 54.6194 2.26293e-14
      vertex -1.91342 54.6194 10.1
    endloop
  endfacet
  facet normal -0.195091 0.980785 4.50758e-17
    outer loop
      vertex -1.91342 54.6194 2.26293e-14
      vertex 2.24265e-15 55 10.1
      vertex 0 55 2.22045e-14
    endloop
  endfacet
  facet normal 0.555568 0.831471 0
    outer loop
      vertex 103.536 53.5355 10.1
      vertex 101.913 54.6194 -4.24864e-16
      vertex 101.913 54.6194 10.1
    endloop
  endfacet
  facet normal 0.555568 0.831471 0
    outer loop
      vertex 101.913 54.6194 -4.24864e-16
      vertex 103.536 53.5355 10.1
      vertex 103.536 53.5355 -7.85046e-16
    endloop
  endfacet
  facet normal 0 1 0
    outer loop
      vertex 100 55 10.1
      vertex 0 55 2.22045e-14
      vertex 2.24265e-15 55 10.1
    endloop
  endfacet
  facet normal -0 1 0
    outer loop
      vertex 0 55 2.22045e-14
      vertex 100 55 10.1
      vertex 100 55 0
    endloop
  endfacet
  facet normal 1 -0 0
    outer loop
      vertex 105 0 10.1
      vertex 105 50 -1.11022e-15
      vertex 105 50 10.1
    endloop
  endfacet
  facet normal 1 0 0
    outer loop
      vertex 105 50 -1.11022e-15
      vertex 105 0 10.1
      vertex 105 0 -1.11022e-15
    endloop
  endfacet
  facet normal 0.555568 -0.831471 0
    outer loop
      vertex 101.913 -4.6194 -4.24864e-16
      vertex 103.536 -3.53553 10.1
      vertex 101.913 -4.6194 10.1
    endloop
  endfacet
  facet normal 0.555568 -0.831471 0
    outer loop
      vertex 103.536 -3.53553 10.1
      vertex 101.913 -4.6194 -4.24864e-16
      vertex 103.536 -3.53553 -7.85046e-16
    endloop
  endfacet
  facet normal 0.83147 0.55557 0
    outer loop
      vertex 104.619 51.9134 10.1
      vertex 103.536 53.5355 -7.85046e-16
      vertex 103.536 53.5355 10.1
    endloop
  endfacet
  facet normal 0.83147 0.55557 0
    outer loop
      vertex 103.536 53.5355 -7.85046e-16
      vertex 104.619 51.9134 10.1
      vertex 104.619 51.9134 -1.02571e-15
    endloop
  endfacet
  facet normal 0 -1 0
    outer loop
      vertex 0 -5 2.22045e-14
      vertex 100 -5 10.1
      vertex 2.24265e-15 -5 10.1
    endloop
  endfacet
  facet normal 0 -1 -0
    outer loop
      vertex 100 -5 10.1
      vertex 0 -5 2.22045e-14
      vertex 100 -5 0
    endloop
  endfacet
  facet normal 0.195091 -0.980785 0
    outer loop
      vertex 100 -5 0
      vertex 101.913 -4.6194 10.1
      vertex 100 -5 10.1
    endloop
  endfacet
  facet normal 0.195091 -0.980785 0
    outer loop
      vertex 101.913 -4.6194 10.1
      vertex 100 -5 0
      vertex 101.913 -4.6194 -4.24864e-16
    endloop
  endfacet
  facet normal -0 0 1
    outer loop
      vertex 40 37.5 10.1
      vertex 64.0486 12.5 10.1
      vertex 64.0486 37.5 10.1
    endloop
  endfacet
  facet normal 0 0 1
    outer loop
      vertex 64.0486 12.5 10.1
      vertex 40 37.5 10.1
      vertex 40 12.5 10.1
    endloop
  endfacet
  facet normal 0 0 1
    outer loop
      vertex 100 55 10.1
      vertex 105 50 10.1
      vertex 104.619 51.9134 10.1
    endloop
  endfacet
  facet normal 0 0 1
    outer loop
      vertex 105 50 10.1
      vertex 64.0486 37.5 10.1
      vertex 105 0 10.1
    endloop
  endfacet
  facet normal 0 0 1
    outer loop
      vertex 100 55 10.1
      vertex 104.619 51.9134 10.1
      vertex 103.536 53.5355 10.1
    endloop
  endfacet
  facet normal -0 0 1
    outer loop
      vertex 64.0486 12.5 10.1
      vertex 105 0 10.1
      vertex 64.0486 37.5 10.1
    endloop
  endfacet
  facet normal 0 0 1
    outer loop
      vertex 100 55 10.1
      vertex 103.536 53.5355 10.1
      vertex 101.913 54.6194 10.1
    endloop
  endfacet
  facet normal 0 0 1
    outer loop
      vertex 105 50 10.1
      vertex 100 55 10.1
      vertex 64.0486 37.5 10.1
    endloop
  endfacet
  facet normal 0 -0 1
    outer loop
      vertex 100 -5 10.1
      vertex 105 0 10.1
      vertex 64.0486 12.5 10.1
    endloop
  endfacet
  facet normal 0 0 1
    outer loop
      vertex 103.536 -3.53553 10.1
      vertex 100 -5 10.1
      vertex 101.913 -4.6194 10.1
    endloop
  endfacet
  facet normal 0 0 1
    outer loop
      vertex 64.0486 37.5 10.1
      vertex 100 55 10.1
      vertex 64.0486 50 10.1
    endloop
  endfacet
  facet normal -0 0 1
    outer loop
      vertex 2.24265e-15 55 10.1
      vertex 64.0486 50 10.1
      vertex 100 55 10.1
    endloop
  endfacet
  facet normal 0 0 1
    outer loop
      vertex -5 50 10.1
      vertex 30 50 10.1
      vertex 2.24265e-15 55 10.1
    endloop
  endfacet
  facet normal 0 0 1
    outer loop
      vertex 64.0486 50 10.1
      vertex 2.24265e-15 55 10.1
      vertex 30 50 10.1
    endloop
  endfacet
  facet normal 0 0 1
    outer loop
      vertex 105 0 10.1
      vertex 100 -5 10.1
      vertex 104.619 -1.91342 10.1
    endloop
  endfacet
  facet normal 0 0 1
    outer loop
      vertex 104.619 -1.91342 10.1
      vertex 100 -5 10.1
      vertex 103.536 -3.53553 10.1
    endloop
  endfacet
  facet normal -0 0 1
    outer loop
      vertex 64.0486 0 10.1
      vertex 100 -5 10.1
      vertex 64.0486 12.5 10.1
    endloop
  endfacet
  facet normal 0 0 1
    outer loop
      vertex 2.24265e-15 -5 10.1
      vertex 64.0486 0 10.1
      vertex 30 0 10.1
    endloop
  endfacet
  facet normal 0 0 1
    outer loop
      vertex 64.0486 0 10.1
      vertex 2.24265e-15 -5 10.1
      vertex 100 -5 10.1
    endloop
  endfacet
  facet normal 0 0 1
    outer loop
      vertex 30 50 10.1
      vertex -5 50 10.1
      vertex 30 0 10.1
    endloop
  endfacet
  facet normal 0 0 1
    outer loop
      vertex -5 50 10.1
      vertex 2.24265e-15 55 10.1
      vertex -1.91342 54.6194 10.1
    endloop
  endfacet
  facet normal 0 0 1
    outer loop
      vertex -5 0 10.1
      vertex 30 0 10.1
      vertex -5 50 10.1
    endloop
  endfacet
  facet normal 0 0 1
    outer loop
      vertex -5 50 10.1
      vertex -1.91342 54.6194 10.1
      vertex -3.53553 53.5355 10.1
    endloop
  endfacet
  facet normal 0 0 1
    outer loop
      vertex 30 0 10.1
      vertex -5 0 10.1
      vertex 2.24265e-15 -5 10.1
    endloop
  endfacet
  facet normal 0 0 1
    outer loop
      vertex -5 50 10.1
      vertex -3.53553 53.5355 10.1
      vertex -4.6194 51.9134 10.1
    endloop
  endfacet
  facet normal 0 0 1
    outer loop
      vertex 2.24265e-15 -5 10.1
      vertex -5 0 10.1
      vertex -1.91342 -4.6194 10.1
    endloop
  endfacet
  facet normal 0 0 1
    outer loop
      vertex -1.91342 -4.6194 10.1
      vertex -5 0 10.1
      vertex -3.53553 -3.53553 10.1
    endloop
  endfacet
  facet normal 0 0 1
    outer loop
      vertex -3.53553 -3.53553 10.1
      vertex -5 0 10.1
      vertex -4.6194 -1.91342 10.1
    endloop
  endfacet
  facet normal 0.980786 0.195089 0
    outer loop
      vertex 105 50 10.1
      vertex 104.619 51.9134 -1.02571e-15
      vertex 104.619 51.9134 10.1
    endloop
  endfacet
  facet normal 0.980786 0.195089 0
    outer loop
      vertex 104.619 51.9134 -1.02571e-15
      vertex 105 50 10.1
      vertex 105 50 -1.11022e-15
    endloop
  endfacet
  facet normal 0.83147 -0.55557 0
    outer loop
      vertex 103.536 -3.53553 10.1
      vertex 104.619 -1.91342 -1.02571e-15
      vertex 104.619 -1.91342 10.1
    endloop
  endfacet
  facet normal 0.83147 -0.55557 0
    outer loop
      vertex 104.619 -1.91342 -1.02571e-15
      vertex 103.536 -3.53553 10.1
      vertex 103.536 -3.53553 -7.85046e-16
    endloop
  endfacet
  facet normal 0.195091 0.980785 0
    outer loop
      vertex 101.913 54.6194 10.1
      vertex 100 55 0
      vertex 100 55 10.1
    endloop
  endfacet
  facet normal 0.195091 0.980785 0
    outer loop
      vertex 100 55 0
      vertex 101.913 54.6194 10.1
      vertex 101.913 54.6194 -4.24864e-16
    endloop
  endfacet
endsolid OpenSCAD_Model
